<?xml version='1.0' encoding='utf-8'?>
<svg xmlns="http://www.w3.org/2000/svg" width="512" height="256" style="background-color:white"><text x="256.000" y="25.600" font-size="10" text-anchor="middle" fill="black" stroke="black" stroke-width="1" /><line x1="102.400" y1="102.400" x2="409.600" y2="102.400" stroke="black" stroke-width="3.000" fill="none" /><line x1="102.400" y1="103.900" x2="102.400" y2="89.600" stroke="black" stroke-width="3.000" fill="none" /><text x="102.400" y="79.600" font-size="10" text-anchor="middle" fill="black" stroke="black" stroke-width="1">8</text><line x1="124.343" y1="103.900" x2="124.343" y2="96.000" stroke="black" stroke-width="3.000" fill="none" /><line x1="146.286" y1="103.900" x2="146.286" y2="89.600" stroke="black" stroke-width="3.000" fill="none" /><text x="146.286" y="79.600" font-size="10" text-anchor="middle" fill="black" stroke="black" stroke-width="1">7</text><line x1="168.229" y1="103.900" x2="168.229" y2="96.000" stroke="black" stroke-width="3.000" fill="none" /><line x1="190.171" y1="103.900" x2="190.171" y2="89.600" stroke="black" stroke-width="3.000" fill="none" /><text x="190.171" y="79.600" font-size="10" text-anchor="middle" fill="black" stroke="black" stroke-width="1">6</text><line x1="212.114" y1="103.900" x2="212.114" y2="96.000" stroke="black" stroke-width="3.000" fill="none" /><line x1="234.057" y1="103.900" x2="234.057" y2="89.600" stroke="black" stroke-width="3.000" fill="none" /><text x="234.057" y="79.600" font-size="10" text-anchor="middle" fill="black" stroke="black" stroke-width="1">5</text><line x1="256.000" y1="103.900" x2="256.000" y2="96.000" stroke="black" stroke-width="3.000" fill="none" /><line x1="277.943" y1="103.900" x2="277.943" y2="89.600" stroke="black" stroke-width="3.000" fill="none" /><text x="277.943" y="79.600" font-size="10" text-anchor="middle" fill="black" stroke="black" stroke-width="1">4</text><line x1="299.886" y1="103.900" x2="299.886" y2="96.000" stroke="black" stroke-width="3.000" fill="none" /><line x1="321.829" y1="103.900" x2="321.829" y2="89.600" stroke="black" stroke-width="3.000" fill="none" /><text x="321.829" y="79.600" font-size="10" text-anchor="middle" fill="black" stroke="black" stroke-width="1">3</text><line x1="343.771" y1="103.900" x2="343.771" y2="96.000" stroke="black" stroke-width="3.000" fill="none" /><line x1="365.714" y1="103.900" x2="365.714" y2="89.600" stroke="black" stroke-width="3.000" fill="none" /><text x="365.714" y="79.600" font-size="10" text-anchor="middle" fill="black" stroke="black" stroke-width="1">2</text><line x1="387.657" y1="103.900" x2="387.657" y2="96.000" stroke="black" stroke-width="3.000" fill="none" /><line x1="409.600" y1="103.900" x2="409.600" y2="89.600" stroke="black" stroke-width="3.000" fill="none" /><text x="409.600" y="79.600" font-size="10" text-anchor="middle" fill="black" stroke="black" stroke-width="1">1</text><text x="102.400" y="64.000" font-size="10" text-anchor="middle" fill="black" stroke="black" stroke-width="1">CD=1.92</text><line x1="161.280" y1="102.400" x2="161.280" y2="147.520" stroke="gray" stroke-width="1.500" fill="none" /><line x1="161.280" y1="147.520" x2="97.280" y2="147.520" stroke="gray" stroke-width="1.500" fill="none" /><text x="94.720" y="147.520" font-size="10" text-anchor="end" fill="gray" stroke="gray" stroke-width="1" dominant-baseline="middle">model2</text><line x1="166.400" y1="102.400" x2="166.400" y2="170.816" stroke="black" stroke-width="1.500" fill="none" /><line x1="166.400" y1="170.816" x2="97.280" y2="170.816" stroke="black" stroke-width="1.500" fill="none" /><text x="94.720" y="170.816" font-size="10" text-anchor="end" fill="black" stroke="black" stroke-width="1" dominant-baseline="middle">model1</text><line x1="215.040" y1="102.400" x2="215.040" y2="194.112" stroke="gray" stroke-width="1.500" fill="none" /><line x1="215.040" y1="194.112" x2="97.280" y2="194.112" stroke="gray" stroke-width="1.500" fill="none" /><text x="94.720" y="194.112" font-size="10" text-anchor="end" fill="gray" stroke="gray" stroke-width="1" dominant-baseline="middle">model3</text><line x1="254.720" y1="102.400" x2="254.720" y2="217.408" stroke="black" stroke-width="1.500" fill="none" /><line x1="254.720" y1="217.408" x2="97.280" y2="217.408" stroke="black" stroke-width="1.500" fill="none" /><text x="94.720" y="217.408" font-size="10" text-anchor="end" fill="black" stroke="black" stroke-width="1" dominant-baseline="middle">model4</text><line x1="320.000" y1="102.400" x2="320.000" y2="217.408" stroke="gray" stroke-width="1.500" fill="none" /><line x1="320.000" y1="217.408" x2="414.720" y2="217.408" stroke="gray" stroke-width="1.500" fill="none" /><text x="417.280" y="217.408" font-size="10" text-anchor="start" fill="gray" stroke="gray" stroke-width="1" dominant-baseline="middle">model5</text><line x1="328.960" y1="102.400" x2="328.960" y2="194.112" stroke="black" stroke-width="1.500" fill="none" /><line x1="328.960" y1="194.112" x2="414.720" y2="194.112" stroke="black" stroke-width="1.500" fill="none" /><text x="417.280" y="194.112" font-size="10" text-anchor="start" fill="black" stroke="black" stroke-width="1" dominant-baseline="middle">model6</text><line x1="363.520" y1="102.400" x2="363.520" y2="170.816" stroke="gray" stroke-width="1.500" fill="none" /><line x1="363.520" y1="170.816" x2="414.720" y2="170.816" stroke="gray" stroke-width="1.500" fill="none" /><text x="417.280" y="170.816" font-size="10" text-anchor="start" fill="gray" stroke="gray" stroke-width="1" dominant-baseline="middle">model7</text><line x1="391.680" y1="102.400" x2="391.680" y2="147.520" stroke="black" stroke-width="1.500" fill="none" /><line x1="391.680" y1="147.520" x2="414.720" y2="147.520" stroke="black" stroke-width="1.500" fill="none" /><text x="417.280" y="147.520" font-size="10" text-anchor="start" fill="black" stroke="black" stroke-width="1" dominant-baseline="middle">model8</text><rect x="62.596" y="65.060" width="3.000" height="3.000" fill="red" /><line x1="65.596" y1="66.560" x2="139.204" y2="66.560" stroke="red" stroke-width="1.500" fill="none" /><rect x="139.204" y="65.060" width="3.000" height="3.000" fill="red" /><text x="102.400" y="64.000" font-size="10" text-anchor="middle" fill="black" stroke="black" stroke-width="1">CD=1.92</text><rect x="317.000" y="106.020" width="3.000" height="3.000" fill="red" /><line x1="320.000" y1="107.520" x2="391.680" y2="107.520" stroke="red" stroke-width="1.500" fill="none" /><rect x="391.680" y="106.020" width="3.000" height="3.000" fill="red" /><rect x="251.720" y="116.687" width="3.000" height="3.000" fill="red" /><line x1="254.720" y1="118.187" x2="320.000" y2="118.187" stroke="red" stroke-width="1.500" fill="none" /><rect x="320.000" y="116.687" width="3.000" height="3.000" fill="red" /><rect x="212.040" y="127.353" width="3.000" height="3.000" fill="red" /><line x1="215.040" y1="128.853" x2="254.720" y2="128.853" stroke="red" stroke-width="1.500" fill="none" /><rect x="254.720" y="127.353" width="3.000" height="3.000" fill="red" /><rect x="158.280" y="138.020" width="3.000" height="3.000" fill="red" /><line x1="161.280" y1="139.520" x2="215.040" y2="139.520" stroke="red" stroke-width="1.500" fill="none" /><rect x="215.040" y="138.020" width="3.000" height="3.000" fill="red" /></svg>