<?xml version='1.0' encoding='utf-8'?>
<svg xmlns="http://www.w3.org/2000/svg" width="512" height="256" style="background-color:white" font-family="sans-serif"><text x="256.000" y="15.000" font-size="10" font-family="sans-serif" text-anchor="middle" fill="black">Model comparison</text><line x1="57.200" y1="102.000" x2="454.800" y2="102.000" stroke="black" stroke-width="3.000" fill="none" /><line x1="454.800" y1="98.000" x2="454.800" y2="106.000" stroke="black" stroke-width="1.500" fill="none" /><text x="454.800" y="88.000" font-size="10" font-family="sans-serif" text-anchor="middle" fill="black">1</text><line x1="398.000" y1="98.000" x2="398.000" y2="106.000" stroke="black" stroke-width="1.500" fill="none" /><text x="398.000" y="88.000" font-size="10" font-family="sans-serif" text-anchor="middle" fill="black">2</text><line x1="341.200" y1="98.000" x2="341.200" y2="106.000" stroke="black" stroke-width="1.500" fill="none" /><text x="341.200" y="88.000" font-size="10" font-family="sans-serif" text-anchor="middle" fill="black">3</text><line x1="284.400" y1="98.000" x2="284.400" y2="106.000" stroke="black" stroke-width="1.500" fill="none" /><text x="284.400" y="88.000" font-size="10" font-family="sans-serif" text-anchor="middle" fill="black">4</text><line x1="227.600" y1="98.000" x2="227.600" y2="106.000" stroke="black" stroke-width="1.500" fill="none" /><text x="227.600" y="88.000" font-size="10" font-family="sans-serif" text-anchor="middle" fill="black">5</text><line x1="170.800" y1="98.000" x2="170.800" y2="106.000" stroke="black" stroke-width="1.500" fill="none" /><text x="170.800" y="88.000" font-size="10" font-family="sans-serif" text-anchor="middle" fill="black">6</text><line x1="114.000" y1="98.000" x2="114.000" y2="106.000" stroke="black" stroke-width="1.500" fill="none" /><text x="114.000" y="88.000" font-size="10" font-family="sans-serif" text-anchor="middle" fill="black">7</text><line x1="57.200" y1="98.000" x2="57.200" y2="106.000" stroke="black" stroke-width="1.500" fill="none" /><text x="57.200" y="88.000" font-size="10" font-family="sans-serif" text-anchor="middle" fill="black">8</text><line x1="454.800" y1="55.000" x2="345.920" y2="55.000" stroke="red" stroke-width="1.500" fill="none" /><line x1="454.800" y1="51.000" x2="454.800" y2="59.000" stroke="red" stroke-width="1.500" fill="none" /><line x1="345.920" y1="51.000" x2="345.920" y2="59.000" stroke="red" stroke-width="1.500" fill="none" /><text x="400.360" y="42.000" font-size="10" font-family="sans-serif" text-anchor="middle" fill="black">CD=1.92</text><rect x="426.793" y="99.000" width="3.000" height="6.000" fill="black" /><polyline points="428.293,105.000 428.293,136.000 458.800,136.000" stroke="black" stroke-width="1.500" fill="none" stroke-linejoin="miter" /><text x="460.800" y="136.000" font-size="10" font-family="sans-serif" text-anchor="start" fill="black" dominant-baseline="middle">model8</text><rect x="385.140" y="99.000" width="3.000" height="6.000" fill="black" /><polyline points="386.640,105.000 386.640,152.000 458.800,152.000" stroke="black" stroke-width="1.500" fill="none" stroke-linejoin="miter" /><text x="460.800" y="152.000" font-size="10" font-family="sans-serif" text-anchor="start" fill="black" dominant-baseline="middle">model7</text><rect x="334.020" y="99.000" width="3.000" height="6.000" fill="black" /><polyline points="335.520,105.000 335.520,168.000 458.800,168.000" stroke="black" stroke-width="1.500" fill="none" stroke-linejoin="miter" /><text x="460.800" y="168.000" font-size="10" font-family="sans-serif" text-anchor="start" fill="black" dominant-baseline="middle">model6</text><rect x="320.767" y="99.000" width="3.000" height="6.000" fill="black" /><polyline points="322.267,105.000 322.267,184.000 458.800,184.000" stroke="black" stroke-width="1.500" fill="none" stroke-linejoin="miter" /><text x="460.800" y="184.000" font-size="10" font-family="sans-serif" text-anchor="start" fill="black" dominant-baseline="middle">model5</text><rect x="224.207" y="99.000" width="3.000" height="6.000" fill="black" /><polyline points="225.707,105.000 225.707,184.000 53.200,184.000" stroke="black" stroke-width="1.500" fill="none" stroke-linejoin="miter" /><text x="51.200" y="184.000" font-size="10" font-family="sans-serif" text-anchor="end" fill="black" dominant-baseline="middle">model4</text><rect x="165.513" y="99.000" width="3.000" height="6.000" fill="black" /><polyline points="167.013,105.000 167.013,168.000 53.200,168.000" stroke="black" stroke-width="1.500" fill="none" stroke-linejoin="miter" /><text x="51.200" y="168.000" font-size="10" font-family="sans-serif" text-anchor="end" fill="black" dominant-baseline="middle">model3</text><rect x="93.567" y="99.000" width="3.000" height="6.000" fill="black" /><polyline points="95.067,105.000 95.067,152.000 53.200,152.000" stroke="black" stroke-width="1.500" fill="none" stroke-linejoin="miter" /><text x="51.200" y="152.000" font-size="10" font-family="sans-serif" text-anchor="end" fill="black" dominant-baseline="middle">model1</text><rect x="85.993" y="99.000" width="3.000" height="6.000" fill="black" /><polyline points="87.493,105.000 87.493,136.000 53.200,136.000" stroke="black" stroke-width="1.500" fill="none" stroke-linejoin="miter" /><text x="51.200" y="136.000" font-size="10" font-family="sans-serif" text-anchor="end" fill="black" dominant-baseline="middle">model2</text><line x1="428.293" y1="110.000" x2="322.267" y2="110.000" stroke="red" stroke-width="1.500" fill="none" /><line x1="428.293" y1="106.800" x2="428.293" y2="113.200" stroke="red" stroke-width="1.500" fill="none" /><line x1="322.267" y1="106.800" x2="322.267" y2="113.200" stroke="red" stroke-width="1.500" fill="none" /><line x1="322.267" y1="118.000" x2="225.707" y2="118.000" stroke="red" stroke-width="1.500" fill="none" /><line x1="322.267" y1="114.800" x2="322.267" y2="121.200" stroke="red" stroke-width="1.500" fill="none" /><line x1="225.707" y1="114.800" x2="225.707" y2="121.200" stroke="red" stroke-width="1.500" fill="none" /><line x1="225.707" y1="110.000" x2="167.013" y2="110.000" stroke="red" stroke-width="1.500" fill="none" /><line x1="225.707" y1="106.800" x2="225.707" y2="113.200" stroke="red" stroke-width="1.500" fill="none" /><line x1="167.013" y1="106.800" x2="167.013" y2="113.200" stroke="red" stroke-width="1.500" fill="none" /><line x1="167.013" y1="118.000" x2="87.493" y2="118.000" stroke="red" stroke-width="1.500" fill="none" /><line x1="167.013" y1="114.800" x2="167.013" y2="121.200" stroke="red" stroke-width="1.500" fill="none" /><line x1="87.493" y1="114.800" x2="87.493" y2="121.200" stroke="red" stroke-width="1.500" fill="none" /></svg>