<?xml version='1.0' encoding='utf-8'?>
<svg xmlns="http://www.w3.org/2000/svg" width="512" height="256" style="background-color:white" font-family="sans-serif"><text x="256.000" y="15.000" font-size="10" font-family="sans-serif" text-anchor="middle" fill="black">Model comparison</text><line x1="44.800" y1="52.000" x2="467.200" y2="52.000" stroke="black" stroke-width="3.000" fill="none" /><line x1="467.200" y1="48.000" x2="467.200" y2="56.000" stroke="black" stroke-width="1.500" fill="none" /><text x="467.200" y="38.000" font-size="10" font-family="sans-serif" text-anchor="middle" fill="black">1</text><line x1="361.600" y1="48.000" x2="361.600" y2="56.000" stroke="black" stroke-width="1.500" fill="none" /><text x="361.600" y="38.000" font-size="10" font-family="sans-serif" text-anchor="middle" fill="black">2</text><line x1="256.000" y1="48.000" x2="256.000" y2="56.000" stroke="black" stroke-width="1.500" fill="none" /><text x="256.000" y="38.000" font-size="10" font-family="sans-serif" text-anchor="middle" fill="black">3</text><line x1="150.400" y1="48.000" x2="150.400" y2="56.000" stroke="black" stroke-width="1.500" fill="none" /><text x="150.400" y="38.000" font-size="10" font-family="sans-serif" text-anchor="middle" fill="black">4</text><line x1="44.800" y1="48.000" x2="44.800" y2="56.000" stroke="black" stroke-width="1.500" fill="none" /><text x="44.800" y="38.000" font-size="10" font-family="sans-serif" text-anchor="middle" fill="black">5</text><rect x="409.380" y="49.000" width="3.000" height="6.000" fill="black" /><polyline points="410.880,55.000 410.880,78.000 471.200,78.000" stroke="black" stroke-width="1.500" fill="none" stroke-linejoin="miter" /><text x="473.200" y="78.000" font-size="10" font-family="sans-serif" text-anchor="start" fill="black" dominant-baseline="middle">clf3</text><rect x="360.100" y="49.000" width="3.000" height="6.000" fill="black" /><polyline points="361.600,55.000 361.600,94.000 471.200,94.000" stroke="black" stroke-width="1.500" fill="none" stroke-linejoin="miter" /><text x="473.200" y="94.000" font-size="10" font-family="sans-serif" text-anchor="start" fill="black" dominant-baseline="middle">clf5</text><rect x="201.700" y="49.000" width="3.000" height="6.000" fill="black" /><polyline points="203.200,55.000 203.200,110.000 471.200,110.000" stroke="black" stroke-width="1.500" fill="none" stroke-linejoin="miter" /><text x="473.200" y="110.000" font-size="10" font-family="sans-serif" text-anchor="start" fill="black" dominant-baseline="middle">clf4</text><rect x="173.540" y="49.000" width="3.000" height="6.000" fill="black" /><polyline points="175.040,55.000 175.040,94.000 40.800,94.000" stroke="black" stroke-width="1.500" fill="none" stroke-linejoin="miter" /><text x="38.800" y="94.000" font-size="10" font-family="sans-serif" text-anchor="end" fill="black" dominant-baseline="middle">clf2</text><rect x="127.780" y="49.000" width="3.000" height="6.000" fill="black" /><polyline points="129.280,55.000 129.280,78.000 40.800,78.000" stroke="black" stroke-width="1.500" fill="none" stroke-linejoin="miter" /><text x="38.800" y="78.000" font-size="10" font-family="sans-serif" text-anchor="end" fill="black" dominant-baseline="middle">clf1</text><line x1="410.880" y1="60.000" x2="361.600" y2="60.000" stroke="red" stroke-width="1.500" fill="none" /><line x1="410.880" y1="56.800" x2="410.880" y2="63.200" stroke="red" stroke-width="1.500" fill="none" /><line x1="361.600" y1="56.800" x2="361.600" y2="63.200" stroke="red" stroke-width="1.500" fill="none" /><line x1="203.200" y1="60.000" x2="129.280" y2="60.000" stroke="red" stroke-width="1.500" fill="none" /><line x1="203.200" y1="56.800" x2="203.200" y2="63.200" stroke="red" stroke-width="1.500" fill="none" /><line x1="129.280" y1="56.800" x2="129.280" y2="63.200" stroke="red" stroke-width="1.500" fill="none" /></svg>